<?xml version="1.0" standalone="no"?>
<svg xmlns="http://www.w3.org/2000/svg" viewBox="0 0 1604.9987 675.00059" version="1.1"> 
    <title>ismo Logo</title>
    <path
      id="p"
      d="m 194.93204,15.646434 c 26.14912,21.4988 26.35529,66.385279 9.56968,93.550696 -14.63801,23.69677 -37.83203,34.94414 -64.47939,38.37846 -9.48378,1.73432 -13.16046,0.94443 -22.33499,0 C 70.337168,140.39787 53.001778,96.095227 68.017758,54.248116 79.082168,23.390814 103.92555,7.4899338 134.8681,1.7718038 c 20.85745,-2.67875998 43.38142,0.13737 60.06394,13.8746302 z M 507.34699,258.58977 c 0,0 -27.48922,34.34314 -27.48922,34.34314 -3.59077,4.49895 -11.04722,15.79784 -16.99177,16.15844 -3.64232,0.22323 -18.96756,-7.98478 -23.89844,-9.97668 -15.61731,-6.31914 -36.38885,-12.84433 -53.26036,-13.05039 0,0 -6.8723,0 -6.8723,0 -5.51502,0.0343 -10.06793,0.0515 -15.46268,1.61413 -9.87894,2.85048 -20.99489,11.53929 -12.97148,22.35738 7.78289,10.52617 37.76331,19.76447 50.76915,24.10888 30.68484,10.23425 62.36616,21.41294 82.94871,48.08039 30.73638,39.58046 28.10773,103.99101 0,144.24117 -11.30494,16.02107 -26.37246,27.88662 -43.43296,37.24513 -40.44351,22.20283 -82.62228,21.65334 -127.13763,21.1382 -36.02806,-0.42929 -83.4985,-17.89278 -113.39302,-37.53705 -7.00975,-4.60198 -30.42712,-20.09074 -27.19714,-29.43207 1.34009,-3.89794 8.64192,-10.59486 11.71727,-13.73725 0,0 20.6341,-22.32304 20.6341,-22.32304 0,0 18.17724,-18.88872 18.17724,-18.88872 2.71456,-3.10806 6.87231,-8.55145 11.03005,-9.53022 4.0203,-0.94444 7.28464,1.8717 10.30846,4.05249 0,0 20.61691,14.04634 20.61691,14.04634 19.36272,11.29889 42.93472,17.48065 65.28689,18.75135 13.17764,0.73838 35.49545,-3.05654 40.78713,-17.0342 1.94142,-5.15147 0.9793,-9.27264 -2.1476,-13.68573 -6.04763,-8.5171 -15.61731,-12.10596 -24.89492,-15.83219 0,0 -48.10613,-17.85843 -48.10613,-17.85843 -36.1655,-14.59583 -68.20762,-34.53202 -79.16895,-74.5246 -4.20928,-15.36856 -3.47051,-28.91692 -3.2987,-44.64608 0.49824,-41.88145 30.87382,-78.5084 67.00496,-96.57289 51.09559,-25.5513 123.47813,-26.06644 176.96184,-7.58984 27.81565,9.61608 39.63602,18.7857 63.56882,33.75931 -2.61148,9.63324 -7.97188,14.68168 -14.08823,22.32303 z M 41.628118,289.49859 c 0,0 8.33266,-60.10048 8.33266,-60.10048 0,0 4.44982,-23.06142 4.44982,-23.06142 0,0 13.45254,-2.69593 13.45254,-2.69593 0,0 120.265322,0 120.265322,0 0,0 -13.52126,103.0294 -13.52126,103.0294 0,0 -21.30414,154.54411 -21.30414,154.54411 0,0 -8.59038,61.81764 -8.59038,61.81764 0,0 -6.40842,48.08039 -6.40842,48.08039 0,0 -135.7280118,0 -135.7280118,0 0,0 39.0518698,-281.61371 39.0518698,-281.61371 z m 680.822002,15.12815 c 33.26195,-26.6331 88.27474,-41.19459 127.13763,-17.73823 23.74381,14.32109 23.96716,27.68057 34.36152,48.97331 5.10268,-9.49587 12.86839,-16.58773 20.61691,-23.9715 14.20849,-13.56554 36.06242,-26.37553 54.97843,-31.93912 30.90819,-9.10093 71.62659,-5.20298 94.18489,19.8675 21.2355,23.62808 19.5517,51.41168 19.2081,80.6892 0,0 -10.0851,75.5549 -10.0851,75.5549 0,0 -17.868,128.78676 -17.868,128.78676 0,0 -9.8445,72.12058 -9.8445,72.12058 0,0 -135.72805,0 -135.72805,0 0,0 22.79887,-159.69558 22.79887,-159.69558 0,0 11.56265,-84.14068 11.56265,-84.14068 0.12027,-11.17869 -1.82116,-32.11083 -18.89883,-21.12103 -2.83483,1.83736 -6.15072,4.99693 -8.52166,7.41812 -12.5935,12.80999 -23.86408,37.91482 -30.2725,54.91467 -5.51503,14.68169 -10.42872,60.68432 -12.97148,78.98921 0,0 -10.54898,75.5549 -10.54898,75.5549 0,0 -6.40843,48.08039 -6.40843,48.08039 0,0 -135.72801,0 -135.72801,0 0,0 28.4857,-202.6245 28.4857,-202.6245 0,0 5.78992,-48.08039 5.78992,-48.08039 -0.25771,-5.94136 -2.45685,-14.14937 -8.67628,-16.50187 -6.7005,-2.55857 -14.43184,5.28884 -18.57241,9.66759 -11.76882,12.41504 -21.64775,33.65627 -27.55794,49.7632 -10.11946,27.59471 -13.38381,69.45899 -17.73054,99.59509 0,0 -13.74461,97.87794 -13.74461,97.87794 0,0 -6.40842,27.47451 -6.40842,27.47451 0,0 -651.15083181,0 -651.15083181,0 0,0 0,-34.34314 0,-34.34314 0,0 524.01320181,0 524.01320181,0 0,0 13.28073,-103.0294 13.28073,-103.0294 0,0 23.02221,-166.56421 23.02221,-166.56421 0,0 7.90315,-56.66617 7.90315,-56.66617 0,0 4.19211,-21.34426 4.19211,-21.34426 0,0 13.45254,-2.69594 13.45254,-2.69594 0,0 103.08456,0 103.08456,0 0,0 3.43615,49.79755 3.43615,49.79755 5.18859,-13.25645 18.21161,-25.87755 29.2073,-34.6694 z m 591.01818,-28.5048 c 17.6962,-0.32626 38.0554,3.0222 54.9784,8.25953 12.8856,4.00097 22.9192,8.63729 34.3616,15.81501 45.2541,28.40177 64.6855,80.27708 65.2869,131.82612 0.3607,32.14518 -6.3569,72.53271 -16.6138,103.02941 -5.8071,17.29177 -13.8477,34.41182 -23.658,49.79755 -26.8363,42.13902 -70.5957,71.82866 -119.5093,81.6508 -25.8571,5.20298 -47.7626,4.49895 -73.8773,4.20703 -60.2701,-0.70403 -114.2005,-37.12493 -133.8725,-94.44362 -9.7243,-28.33308 -8.7794,-51.61773 -8.7278,-80.70637 0.017,-15.11098 2.8692,-33.19264 5.8414,-48.08039 12.9715,-64.83983 43.8453,-118.87876 104.1154,-150.5603 26.2007,-13.7716 50.6661,-16.38168 79.0315,-20.79477 0,0 32.6435,0 32.6435,0 z m -71.661,147.31488 c -10.0507,34.15425 -12.9371,67.62163 -12.5247,103.02941 0.2577,22.01395 7.1471,43.89052 32.6434,46.03697 24.3795,2.06059 43.1237,-16.05542 51.1471,-37.45119 8.2983,-22.13415 15.8235,-63.92975 15.8579,-87.575 0,0 0,-29.19166 0,-29.19166 -0.034,-16.98268 -3.6252,-35.69969 -22.335,-41.96731 -6.3913,-1.57979 -15.7032,-1.13333 -22.335,0 -26.3897,5.51207 -35.3237,22.97556 -42.4537,47.11878 z m 320.782,107.78593 c 41.7149,12.8615 50.8207,63.00248 32.6778,98.27288 -10.4802,20.38265 -32.0249,37.3825 -55.0128,40.95419 0,0 -20.6169,0 -20.6169,0 -28.2108,-0.0859 -48.5013,-17.18874 -55.3907,-44.3885 -1.804,-7.1262 -1.3917,-18.15035 -1.3058,-25.75735 0.4639,-39.23704 32.1624,-65.37216 68.7231,-71.38221 10.7036,-1.32221 20.5482,-0.89292 30.9253,2.30099 z"
     />
</svg>
